MutatorSansInstance_800-500.ufo
<glyph name="comma" format="2">
  <advance width="270"/>
  <unicode hex="002C"/>
  <outline>
    <contour>
      <point x="216" y="0" type="line"/>
      <point x="216" y="274" type="line"/>
      <point x="54" y="274" type="line"/>
      <point x="54" y="0" type="line"/>
      <point x="124" y="-14" type="line"/>
      <point x="115" y="12" type="line"/>
      <point x="93" y="-133" type="line"/>
      <point x="153" y="-135" type="line"/>
    </contour>
  </outline>
</glyph>
<glyph name="A" format="2">
  <advance width="972"/>
  <unicode hex="0041"/>
  <outline>
    <contour>
      <point x="20" y="0" type="line"/>
      <point x="257" y="0" type="line"/>
      <point x="471" y="780" type="line"/>
      <point x="267" y="780" type="line"/>
    </contour>
    <contour>
      <point x="161" y="135" type="line"/>
      <point x="736" y="135" type="line"/>
      <point x="736" y="313" type="line"/>
      <point x="161" y="313" type="line"/>
    </contour>
    <contour>
      <point x="619" y="0" type="line"/>
      <point x="953" y="0" type="line"/>
      <point x="705" y="780" type="line"/>
      <point x="388" y="780" type="line"/>
    </contour>
    <contour>
      <point x="320" y="564" type="line"/>
      <point x="608" y="564" type="line"/>
      <point x="608" y="780" type="line"/>
      <point x="320" y="780" type="line"/>
    </contour>
  </outline>
</glyph>
<glyph name="B" format="2">
  <advance width="966"/>
  <unicode hex="0042"/>
  <outline>
    <contour>
      <point x="54" y="0" type="line"/>
      <point x="354" y="0" type="line"/>
      <point x="354" y="780" type="line"/>
      <point x="54" y="780" type="line"/>
    </contour>
    <contour>
      <point x="314" y="340" type="line"/>
      <point x="560" y="340" type="line" smooth="yes"/>
      <point x="611" y="340"/>
      <point x="643" y="322"/>
      <point x="643" y="268" type="curve" smooth="yes"/>
      <point x="643" y="218"/>
      <point x="610" y="198"/>
      <point x="559" y="198" type="curve" smooth="yes"/>
      <point x="314" y="198" type="line"/>
      <point x="314" y="0" type="line"/>
      <point x="647" y="0" type="line" smooth="yes"/>
      <point x="882" y="0"/>
      <point x="942" y="91"/>
      <point x="942" y="221" type="curve" smooth="yes"/>
      <point x="942" y="339"/>
      <point x="880" y="403"/>
      <point x="780" y="420" type="curve"/>
      <point x="764" y="371" type="line"/>
      <point x="844" y="387"/>
      <point x="918" y="443"/>
      <point x="918" y="554" type="curve" smooth="yes"/>
      <point x="918" y="692"/>
      <point x="844" y="780"/>
      <point x="611" y="780" type="curve" smooth="yes"/>
      <point x="314" y="780" type="line"/>
      <point x="314" y="592" type="line"/>
      <point x="536" y="592" type="line" smooth="yes"/>
      <point x="592" y="592"/>
      <point x="623" y="572"/>
      <point x="623" y="524" type="curve" smooth="yes"/>
      <point x="623" y="467"/>
      <point x="591" y="454"/>
      <point x="536" y="454" type="curve" smooth="yes"/>
      <point x="314" y="454" type="line"/>
    </contour>
  </outline>
</glyph>
<glyph name="C" format="2">
  <advance width="1059"/>
  <unicode hex="0043"/>
  <outline>
    <contour>
      <point x="726" y="350" type="line"/>
      <point x="714" y="247"/>
      <point x="656" y="208"/>
      <point x="559" y="208" type="curve" smooth="yes"/>
      <point x="512" y="208" type="line" smooth="yes"/>
      <point x="407" y="208"/>
      <point x="347" y="261"/>
      <point x="347" y="393" type="curve" smooth="yes"/>
      <point x="347" y="521"/>
      <point x="407" y="572"/>
      <point x="512" y="572" type="curve" smooth="yes"/>
      <point x="559" y="572" type="line" smooth="yes"/>
      <point x="655" y="572"/>
      <point x="713" y="536"/>
      <point x="726" y="436" type="curve"/>
      <point x="1021" y="467" type="line"/>
      <point x="991" y="687"/>
      <point x="828" y="790"/>
      <point x="583" y="790" type="curve" smooth="yes"/>
      <point x="487" y="790" type="line" smooth="yes"/>
      <point x="210" y="790"/>
      <point x="37" y="664"/>
      <point x="37" y="393" type="curve" smooth="yes"/>
      <point x="37" y="119"/>
      <point x="210" y="-10"/>
      <point x="487" y="-10" type="curve" smooth="yes"/>
      <point x="583" y="-10" type="line" smooth="yes"/>
      <point x="829" y="-10"/>
      <point x="992" y="96"/>
      <point x="1022" y="321" type="curve"/>
    </contour>
  </outline>
</glyph>
<glyph name="D" format="2">
  <advance width="959"/>
  <unicode hex="0044"/>
  <outline>
    <contour>
      <point x="54" y="0" type="line"/>
      <point x="346" y="0" type="line"/>
      <point x="346" y="780" type="line"/>
      <point x="54" y="780" type="line"/>
    </contour>
    <contour>
      <point x="300" y="570" type="line"/>
      <point x="443" y="570" type="line" smooth="yes"/>
      <point x="550" y="570"/>
      <point x="613" y="521"/>
      <point x="613" y="393" type="curve" smooth="yes"/>
      <point x="613" y="261"/>
      <point x="550" y="210"/>
      <point x="443" y="210" type="curve" smooth="yes"/>
      <point x="297" y="210" type="line"/>
      <point x="297" y="0" type="line"/>
      <point x="467" y="0" type="line" smooth="yes"/>
      <point x="745" y="0"/>
      <point x="922" y="122"/>
      <point x="922" y="393" type="curve" smooth="yes"/>
      <point x="922" y="661"/>
      <point x="745" y="780"/>
      <point x="467" y="780" type="curve" smooth="yes"/>
      <point x="300" y="780" type="line"/>
    </contour>
  </outline>
</glyph>
<glyph name="E" format="2">
  <advance width="872"/>
  <unicode hex="0045"/>
  <anchor x="432" y="822" name="top"/>
  <outline>
    <contour>
      <point x="58" y="0" type="line"/>
      <point x="350" y="0" type="line"/>
      <point x="350" y="780" type="line"/>
      <point x="58" y="780" type="line"/>
    </contour>
    <contour>
      <point x="134" y="557" type="line"/>
      <point x="820" y="557" type="line"/>
      <point x="820" y="780" type="line"/>
      <point x="134" y="780" type="line"/>
    </contour>
    <contour>
      <point x="134" y="0" type="line"/>
      <point x="820" y="0" type="line"/>
      <point x="820" y="223" type="line"/>
      <point x="134" y="223" type="line"/>
    </contour>
    <contour>
      <point x="134" y="319" type="line"/>
      <point x="707" y="319" type="line"/>
      <point x="707" y="462" type="line"/>
      <point x="134" y="462" type="line"/>
    </contour>
  </outline>
</glyph>
<glyph name="F" format="2">
  <advance width="863"/>
  <unicode hex="0046"/>
  <outline>
    <contour>
      <point x="54" y="0" type="line"/>
      <point x="358" y="0" type="line"/>
      <point x="358" y="780" type="line"/>
      <point x="54" y="780" type="line"/>
    </contour>
    <contour>
      <point x="134" y="565" type="line"/>
      <point x="809" y="565" type="line"/>
      <point x="809" y="780" type="line"/>
      <point x="134" y="780" type="line"/>
    </contour>
    <contour>
      <point x="134" y="265" type="line"/>
      <point x="754" y="265" type="line"/>
      <point x="754" y="448" type="line"/>
      <point x="134" y="448" type="line"/>
    </contour>
  </outline>
</glyph>
<glyph name="G" format="2">
  <advance width="1084"/>
  <unicode hex="0047"/>
  <outline>
    <contour>
      <point x="496" y="308" type="line"/>
      <point x="761" y="308" type="line"/>
      <point x="761" y="216" type="line"/>
      <point x="884" y="0" type="line"/>
      <point x="1031" y="0" type="line"/>
      <point x="1031" y="398" type="line"/>
      <point x="496" y="398" type="line"/>
    </contour>
    <contour>
      <point x="740" y="356" type="line"/>
      <point x="727" y="251"/>
      <point x="666" y="208"/>
      <point x="564" y="208" type="curve" smooth="yes"/>
      <point x="512" y="208" type="line" smooth="yes"/>
      <point x="407" y="208"/>
      <point x="347" y="261"/>
      <point x="347" y="393" type="curve" smooth="yes"/>
      <point x="347" y="521"/>
      <point x="410" y="572"/>
      <point x="519" y="572" type="curve" smooth="yes"/>
      <point x="571" y="572" type="line" smooth="yes"/>
      <point x="668" y="572"/>
      <point x="726" y="536"/>
      <point x="739" y="436" type="curve"/>
      <point x="1022" y="467" type="line"/>
      <point x="992" y="687"/>
      <point x="832" y="790"/>
      <point x="589" y="790" type="curve" smooth="yes"/>
      <point x="488" y="790" type="line" smooth="yes"/>
      <point x="211" y="790"/>
      <point x="37" y="664"/>
      <point x="37" y="393" type="curve" smooth="yes"/>
      <point x="37" y="119"/>
      <point x="210" y="-10"/>
      <point x="487" y="-10" type="curve" smooth="yes"/>
      <point x="516" y="-10" type="line" smooth="yes"/>
      <point x="760" y="-10"/>
      <point x="919" y="100"/>
      <point x="947" y="327" type="curve"/>
    </contour>
  </outline>
</glyph>
<glyph name="H" format="2">
  <advance width="1004"/>
  <unicode hex="0048"/>
  <outline>
    <contour>
      <point x="54" y="0" type="line"/>
      <point x="358" y="0" type="line"/>
      <point x="358" y="780" type="line"/>
      <point x="54" y="780" type="line"/>
    </contour>
    <contour>
      <point x="170" y="279" type="line"/>
      <point x="834" y="279" type="line"/>
      <point x="834" y="494" type="line"/>
      <point x="170" y="494" type="line"/>
    </contour>
    <contour>
      <point x="646" y="0" type="line"/>
      <point x="950" y="0" type="line"/>
      <point x="950" y="780" type="line"/>
      <point x="646" y="780" type="line"/>
    </contour>
  </outline>
</glyph>
<glyph name="I" format="2">
  <advance width="757"/>
  <unicode hex="0049"/>
  <outline>
    <contour>
      <point x="227" y="0" type="line"/>
      <point x="531" y="0" type="line"/>
      <point x="531" y="780" type="line"/>
      <point x="227" y="780" type="line"/>
    </contour>
    <contour>
      <point x="54" y="553" type="line"/>
      <point x="703" y="553" type="line"/>
      <point x="703" y="780" type="line"/>
      <point x="54" y="780" type="line"/>
    </contour>
    <contour>
      <point x="54" y="0" type="line"/>
      <point x="703" y="0" type="line"/>
      <point x="703" y="227" type="line"/>
      <point x="54" y="227" type="line"/>
    </contour>
  </outline>
</glyph>
<glyph name="J" format="2">
  <advance width="745"/>
  <unicode hex="004A"/>
  <outline>
    <contour>
      <point x="221" y="-10" type="curve" smooth="yes"/>
      <point x="511" y="-10"/>
      <point x="691" y="111"/>
      <point x="691" y="368" type="curve" smooth="yes"/>
      <point x="691" y="780" type="line"/>
      <point x="382" y="780" type="line"/>
      <point x="382" y="406" type="line" smooth="yes"/>
      <point x="382" y="280"/>
      <point x="317" y="228"/>
      <point x="207" y="228" type="curve" smooth="yes"/>
      <point x="176" y="228"/>
      <point x="136" y="231"/>
      <point x="94" y="239" type="curve"/>
      <point x="54" y="9" type="line"/>
      <point x="104" y="-4"/>
      <point x="160" y="-10"/>
    </contour>
  </outline>
</glyph>
<glyph name="K" format="2">
  <advance width="999"/>
  <unicode hex="004B"/>
  <outline>
    <contour>
      <point x="54" y="0" type="line"/>
      <point x="358" y="0" type="line"/>
      <point x="358" y="780" type="line"/>
      <point x="54" y="780" type="line"/>
    </contour>
    <contour>
      <point x="280" y="312" type="line"/>
      <point x="377" y="312" type="line"/>
      <point x="607" y="0" type="line"/>
      <point x="977" y="0" type="line"/>
      <point x="631" y="496" type="line"/>
      <point x="385" y="431" type="line"/>
      <point x="280" y="431" type="line"/>
    </contour>
    <contour>
      <point x="364" y="407" type="line"/>
      <point x="554" y="318" type="line"/>
      <point x="968" y="780" type="line"/>
      <point x="631" y="780" type="line"/>
    </contour>
  </outline>
</glyph>
<glyph name="L" format="2">
  <advance width="782"/>
  <unicode hex="004C"/>
  <outline>
    <contour>
      <point x="54" y="0" type="line"/>
      <point x="358" y="0" type="line"/>
      <point x="358" y="780" type="line"/>
      <point x="54" y="780" type="line"/>
    </contour>
    <contour>
      <point x="134" y="0" type="line"/>
      <point x="759" y="0" type="line"/>
      <point x="759" y="219" type="line"/>
      <point x="134" y="219" type="line"/>
    </contour>
  </outline>
</glyph>
<glyph name="M" format="2">
  <advance width="1028"/>
  <unicode hex="004D"/>
  <outline>
    <contour>
      <point x="54" y="0" type="line"/>
      <point x="290" y="0" type="line"/>
      <point x="290" y="780" type="line"/>
      <point x="54" y="780" type="line"/>
    </contour>
    <contour>
      <point x="974" y="0" type="line"/>
      <point x="974" y="780" type="line"/>
      <point x="738" y="780" type="line"/>
      <point x="738" y="0" type="line"/>
    </contour>
    <contour>
      <point x="843" y="465" type="line"/>
      <point x="738" y="780" type="line"/>
      <point x="495" y="500" type="line"/>
      <point x="533" y="500" type="line"/>
      <point x="290" y="780" type="line"/>
      <point x="185" y="465" type="line"/>
      <point x="468" y="155" type="line"/>
      <point x="561" y="155" type="line"/>
    </contour>
  </outline>
</glyph>
<glyph name="N" format="2">
  <advance width="998"/>
  <unicode hex="004E"/>
  <outline>
    <contour>
      <point x="54" y="0" type="line"/>
      <point x="290" y="0" type="line"/>
      <point x="290" y="780" type="line"/>
      <point x="54" y="780" type="line"/>
    </contour>
    <contour>
      <point x="168" y="521" type="line"/>
      <point x="708" y="0" type="line"/>
      <point x="830" y="260" type="line"/>
      <point x="290" y="780" type="line"/>
    </contour>
    <contour>
      <point x="708" y="0" type="line"/>
      <point x="944" y="0" type="line"/>
      <point x="944" y="780" type="line"/>
      <point x="708" y="780" type="line"/>
    </contour>
  </outline>
</glyph>
<glyph name="O" format="2">
  <advance width="1072"/>
  <unicode hex="004F"/>
  <outline>
    <contour>
      <point x="487" y="-10" type="curve" smooth="yes"/>
      <point x="584" y="-10" type="line" smooth="yes"/>
      <point x="861" y="-10"/>
      <point x="1035" y="119"/>
      <point x="1035" y="393" type="curve" smooth="yes"/>
      <point x="1035" y="664"/>
      <point x="861" y="790"/>
      <point x="584" y="790" type="curve" smooth="yes"/>
      <point x="487" y="790" type="line" smooth="yes"/>
      <point x="210" y="790"/>
      <point x="37" y="664"/>
      <point x="37" y="393" type="curve" smooth="yes"/>
      <point x="37" y="119"/>
      <point x="210" y="-10"/>
    </contour>
    <contour>
      <point x="512" y="208" type="line" smooth="yes"/>
      <point x="407" y="208"/>
      <point x="347" y="261"/>
      <point x="347" y="393" type="curve" smooth="yes"/>
      <point x="347" y="521"/>
      <point x="407" y="572"/>
      <point x="512" y="572" type="curve" smooth="yes"/>
      <point x="560" y="572" type="line" smooth="yes"/>
      <point x="666" y="572"/>
      <point x="726" y="521"/>
      <point x="726" y="393" type="curve" smooth="yes"/>
      <point x="726" y="261"/>
      <point x="666" y="208"/>
      <point x="560" y="208" type="curve" smooth="yes"/>
    </contour>
  </outline>
</glyph>
<glyph name="P" format="2">
  <advance width="921"/>
  <unicode hex="0050"/>
  <outline>
    <contour>
      <point x="54" y="0" type="line"/>
      <point x="358" y="0" type="line"/>
      <point x="358" y="780" type="line"/>
      <point x="54" y="780" type="line"/>
    </contour>
    <contour>
      <point x="258" y="556" type="line"/>
      <point x="511" y="556" type="line" smooth="yes"/>
      <point x="590" y="556"/>
      <point x="621" y="529"/>
      <point x="621" y="463" type="curve" smooth="yes"/>
      <point x="621" y="393"/>
      <point x="590" y="368"/>
      <point x="511" y="368" type="curve" smooth="yes"/>
      <point x="258" y="368" type="line"/>
      <point x="258" y="144" type="line"/>
      <point x="504" y="144" type="line" smooth="yes"/>
      <point x="802" y="144"/>
      <point x="898" y="255"/>
      <point x="898" y="463" type="curve" smooth="yes"/>
      <point x="898" y="670"/>
      <point x="802" y="780"/>
      <point x="506" y="780" type="curve" smooth="yes"/>
      <point x="258" y="780" type="line"/>
    </contour>
  </outline>
</glyph>
<glyph name="Q" format="2">
  <advance width="1072"/>
  <unicode hex="0051"/>
  <outline>
    <contour>
      <point x="492" y="-130" type="line"/>
      <point x="793" y="-130" type="line"/>
      <point x="673" y="139" type="line"/>
      <point x="385" y="135" type="line"/>
    </contour>
    <component base="O"/>
  </outline>
</glyph>
<glyph name="R" format="2">
  <advance width="932"/>
  <unicode hex="0052"/>
  <outline>
    <contour>
      <point x="585" y="0" type="line"/>
      <point x="897" y="0" type="line"/>
      <point x="840" y="141" type="line" smooth="yes"/>
      <point x="807" y="202"/>
      <point x="764" y="244"/>
      <point x="692" y="244" type="curve"/>
      <point x="494" y="244" type="line"/>
    </contour>
    <contour>
      <point x="54" y="0" type="line"/>
      <point x="358" y="0" type="line"/>
      <point x="358" y="780" type="line"/>
      <point x="54" y="780" type="line"/>
    </contour>
    <contour>
      <point x="258" y="556" type="line"/>
      <point x="516" y="556" type="line" smooth="yes"/>
      <point x="594" y="556"/>
      <point x="624" y="529"/>
      <point x="624" y="463" type="curve" smooth="yes"/>
      <point x="624" y="392"/>
      <point x="594" y="368"/>
      <point x="516" y="368" type="curve" smooth="yes"/>
      <point x="258" y="368" type="line"/>
      <point x="258" y="192" type="line"/>
      <point x="512" y="192" type="line" smooth="yes"/>
      <point x="802" y="192"/>
      <point x="902" y="295"/>
      <point x="902" y="487" type="curve" smooth="yes"/>
      <point x="902" y="678"/>
      <point x="798" y="780"/>
      <point x="509" y="780" type="curve" smooth="yes"/>
      <point x="258" y="780" type="line"/>
    </contour>
  </outline>
</glyph>
<glyph name="S" format="2">
  <advance width="929"/>
  <unicode hex="0053"/>
  <outline>
    <contour>
      <point x="894" y="237" type="curve" smooth="yes"/>
      <point x="894" y="425"/>
      <point x="787" y="483"/>
      <point x="554" y="498" type="curve" smooth="yes"/>
      <point x="429" y="506" type="line" smooth="yes"/>
      <point x="317" y="515"/>
      <point x="294" y="524"/>
      <point x="294" y="549" type="curve" smooth="yes"/>
      <point x="294" y="574"/>
      <point x="325" y="588"/>
      <point x="415" y="588" type="curve" smooth="yes"/>
      <point x="521" y="588" type="line" smooth="yes"/>
      <point x="640" y="588"/>
      <point x="748" y="576"/>
      <point x="830" y="560" type="curve"/>
      <point x="863" y="752" type="line"/>
      <point x="780" y="771"/>
      <point x="644" y="790"/>
      <point x="556" y="790" type="curve" smooth="yes"/>
      <point x="483" y="790" type="line" smooth="yes"/>
      <point x="174" y="790"/>
      <point x="44" y="702"/>
      <point x="44" y="529" type="curve" smooth="yes"/>
      <point x="44" y="361"/>
      <point x="166" y="299"/>
      <point x="384" y="284" type="curve" smooth="yes"/>
      <point x="504" y="275" type="line" smooth="yes"/>
      <point x="609" y="264"/>
      <point x="638" y="259"/>
      <point x="638" y="231" type="curve" smooth="yes"/>
      <point x="638" y="207"/>
      <point x="605" y="193"/>
      <point x="509" y="193" type="curve" smooth="yes"/>
      <point x="408" y="193" type="line" smooth="yes"/>
      <point x="278" y="193"/>
      <point x="159" y="204"/>
      <point x="68" y="223" type="curve"/>
      <point x="36" y="28" type="line"/>
      <point x="130" y="8"/>
      <point x="278" y="-10"/>
      <point x="374" y="-10" type="curve" smooth="yes"/>
      <point x="454" y="-10" type="line" smooth="yes"/>
      <point x="792" y="-10"/>
      <point x="894" y="93"/>
    </contour>
  </outline>
</glyph>
<glyph name="T" format="2">
  <advance width="910"/>
  <unicode hex="0054"/>
  <outline>
    <contour>
      <point x="303" y="0" type="line"/>
      <point x="607" y="0" type="line"/>
      <point x="607" y="780" type="line"/>
      <point x="303" y="780" type="line"/>
    </contour>
    <contour>
      <point x="23" y="549" type="line"/>
      <point x="887" y="549" type="line"/>
      <point x="887" y="780" type="line"/>
      <point x="23" y="780" type="line"/>
    </contour>
  </outline>
</glyph>
<glyph name="U" format="2">
  <advance width="998"/>
  <unicode hex="0055"/>
  <outline>
    <contour>
      <point x="498" y="-10" type="curve" smooth="yes"/>
      <point x="779" y="-10"/>
      <point x="932" y="110"/>
      <point x="932" y="364" type="curve" smooth="yes"/>
      <point x="932" y="780" type="line"/>
      <point x="623" y="780" type="line"/>
      <point x="623" y="344" type="line" smooth="yes"/>
      <point x="623" y="256"/>
      <point x="577" y="220"/>
      <point x="499" y="220" type="curve" smooth="yes"/>
      <point x="421" y="220"/>
      <point x="375" y="256"/>
      <point x="375" y="344" type="curve" smooth="yes"/>
      <point x="375" y="780" type="line"/>
      <point x="66" y="780" type="line"/>
      <point x="66" y="364" type="line" smooth="yes"/>
      <point x="66" y="110"/>
      <point x="217" y="-10"/>
    </contour>
  </outline>
</glyph>
<glyph name="V" format="2">
  <advance width="981"/>
  <unicode hex="0056"/>
  <outline>
    <contour>
      <point x="963" y="780" type="line"/>
      <point x="722" y="780" type="line"/>
      <point x="493" y="0" type="line"/>
      <point x="702" y="0" type="line"/>
    </contour>
    <contour>
      <point x="352" y="780" type="line"/>
      <point x="18" y="780" type="line"/>
      <point x="277" y="0" type="line"/>
      <point x="594" y="0" type="line"/>
    </contour>
    <contour>
      <point x="656" y="216" type="line"/>
      <point x="367" y="216" type="line"/>
      <point x="367" y="0" type="line"/>
      <point x="656" y="0" type="line"/>
    </contour>
  </outline>
</glyph>
<glyph name="W" format="2">
  <advance width="1091"/>
  <unicode hex="0057"/>
  <outline>
    <contour>
      <point x="1073" y="780" type="line"/>
      <point x="809" y="780" type="line"/>
      <point x="722" y="228" type="line"/>
      <point x="750" y="228" type="line"/>
      <point x="660" y="780" type="line"/>
      <point x="462" y="780" type="line"/>
      <point x="378" y="227" type="line"/>
      <point x="407" y="227" type="line"/>
      <point x="316" y="780" type="line"/>
      <point x="18" y="780" type="line"/>
      <point x="165" y="0" type="line"/>
      <point x="464" y="0" type="line"/>
      <point x="548" y="481" type="line"/>
      <point x="503" y="481" type="line"/>
      <point x="602" y="0" type="line"/>
      <point x="930" y="0" type="line"/>
    </contour>
  </outline>
</glyph>
<glyph name="X" format="2">
  <advance width="954"/>
  <unicode hex="0058"/>
  <outline>
    <contour>
      <point x="578" y="0" type="line"/>
      <point x="936" y="0" type="line"/>
      <point x="597" y="454" type="line"/>
      <point x="378" y="780" type="line"/>
      <point x="20" y="780" type="line"/>
      <point x="347" y="358" type="line"/>
    </contour>
    <contour>
      <point x="18" y="0" type="line"/>
      <point x="299" y="0" type="line"/>
      <point x="470" y="322" type="line"/>
      <point x="617" y="335" type="line"/>
      <point x="934" y="780" type="line"/>
      <point x="653" y="780" type="line"/>
      <point x="474" y="482" type="line"/>
      <point x="326" y="461" type="line"/>
    </contour>
  </outline>
</glyph>
<glyph name="Y" format="2">
  <advance width="921"/>
  <unicode hex="0059"/>
  <outline>
    <contour>
      <point x="904" y="780" type="line"/>
      <point x="663" y="780" type="line"/>
      <point x="416" y="205" type="line"/>
      <point x="612" y="202" type="line"/>
    </contour>
    <contour>
      <point x="338" y="780" type="line"/>
      <point x="17" y="780" type="line"/>
      <point x="309" y="202" type="line"/>
      <point x="587" y="205" type="line"/>
    </contour>
    <contour>
      <point x="612" y="306" type="line"/>
      <point x="308" y="306" type="line"/>
      <point x="308" y="0" type="line"/>
      <point x="612" y="0" type="line"/>
    </contour>
  </outline>
</glyph>
<glyph name="Z" format="2">
  <advance width="932"/>
  <unicode hex="005A"/>
  <outline>
    <contour>
      <point x="54" y="219" type="line"/>
      <point x="409" y="168" type="line"/>
      <point x="878" y="561" type="line"/>
      <point x="523" y="612" type="line"/>
    </contour>
    <contour>
      <point x="54" y="561" type="line"/>
      <point x="878" y="561" type="line"/>
      <point x="878" y="780" type="line"/>
      <point x="54" y="780" type="line"/>
    </contour>
    <contour>
      <point x="54" y="0" type="line"/>
      <point x="878" y="0" type="line"/>
      <point x="878" y="219" type="line"/>
      <point x="54" y="219" type="line"/>
    </contour>
  </outline>
</glyph>
